<svg xmlns="http://www.w3.org/2000/svg" width="170" height="100" viewBox="0 0 170 100"><circle cx="38" cy="62" r="32" fill="none" stroke="#2b3634" stroke-width="5"/><circle cx="132" cy="62" r="32" fill="none" stroke="#2b3634" stroke-width="5"/><path d="M38.3,62.9L70.1,40.5L110.7,41.2L130.8,62.5" fill="none" stroke="#2b3634" stroke-width="5" stroke-linecap="round" stroke-linejoin="round" opacity="0.95"/><path d="M36.2,61.9L69.0,38.7L109.1,39.1L133.4,63.5" fill="none" stroke="#2b3634" stroke-width="2.75" stroke-linecap="round" stroke-linejoin="round" opacity="0.6"/><path d="M69.6,40.6L85.4,62.8L110.6,39.8" fill="none" stroke="#2b3634" stroke-width="4" stroke-linecap="round" stroke-linejoin="round" opacity="0.95"/><path d="M68.8,41.0L85.6,61.9L109.5,38.3" fill="none" stroke="#2b3634" stroke-width="2.2" stroke-linecap="round" stroke-linejoin="round" opacity="0.6"/><path d="M60.6,22.8L95.3,22.2L95.9,34.4L60.6,34.6Z" fill="#d9533f"/><path d="M59.0,22.0L78.0,21.4L95.4,22.3" fill="none" stroke="#2b3634" stroke-width="2" stroke-linecap="round" stroke-linejoin="round" opacity="0.95"/><path d="M60.2,22.8L76.8,22.6L97.3,21.7" fill="none" stroke="#2b3634" stroke-width="1.1" stroke-linecap="round" stroke-linejoin="round" opacity="0.6"/><path d="M97.1,21.4L96.1,29.1L95.4,33.2" fill="none" stroke="#2b3634" stroke-width="2" stroke-linecap="round" stroke-linejoin="round" opacity="0.95"/><path d="M95.2,21.6L97.3,26.2L95.7,33.8" fill="none" stroke="#2b3634" stroke-width="1.1" stroke-linecap="round" stroke-linejoin="round" opacity="0.6"/><path d="M97.1,33.2L77.0,34.1L60.6,34.7" fill="none" stroke="#2b3634" stroke-width="2" stroke-linecap="round" stroke-linejoin="round" opacity="0.95"/><path d="M94.7,33.6L77.4,33.2L60.9,35.4" fill="none" stroke="#2b3634" stroke-width="1.1" stroke-linecap="round" stroke-linejoin="round" opacity="0.6"/><path d="M60.6,33.7L59.0,28.5L59.6,21.2" fill="none" stroke="#2b3634" stroke-width="2" stroke-linecap="round" stroke-linejoin="round" opacity="0.95"/><path d="M59.5,34.7L60.8,26.3L58.7,20.4" fill="none" stroke="#2b3634" stroke-width="1.1" stroke-linecap="round" stroke-linejoin="round" opacity="0.6"/><path d="M97.8,26.0L127.8,25.7L128.1,34.0L98.8,34.5Z" fill="#2b3634"/><path d="M98.8,26.1L112.8,26.4L127.8,26.9" fill="none" stroke="#2b3634" stroke-width="1" stroke-linecap="round" stroke-linejoin="round" opacity="0.95"/><path d="M96.3,26.1L114.3,27.6L126.8,26.8" fill="none" stroke="#2b3634" stroke-width="0.55" stroke-linecap="round" stroke-linejoin="round" opacity="0.6"/><path d="M127.3,25.6L128.2,31.2L127.8,33.2" fill="none" stroke="#2b3634" stroke-width="1" stroke-linecap="round" stroke-linejoin="round" opacity="0.95"/><path d="M127.3,25.8L127.6,29.7L128.2,34.0" fill="none" stroke="#2b3634" stroke-width="0.55" stroke-linecap="round" stroke-linejoin="round" opacity="0.6"/><path d="M127.4,33.2L112.3,35.1L97.9,33.7" fill="none" stroke="#2b3634" stroke-width="1" stroke-linecap="round" stroke-linejoin="round" opacity="0.95"/><path d="M126.4,35.6L114.1,34.5L98.3,33.7" fill="none" stroke="#2b3634" stroke-width="0.55" stroke-linecap="round" stroke-linejoin="round" opacity="0.6"/><path d="M97.5,34.2L97.1,29.9L96.9,25.9" fill="none" stroke="#2b3634" stroke-width="1" stroke-linecap="round" stroke-linejoin="round" opacity="0.95"/><path d="M98.9,33.5L97.5,29.9L98.4,24.9" fill="none" stroke="#2b3634" stroke-width="0.55" stroke-linecap="round" stroke-linejoin="round" opacity="0.6"/></svg>