<svg xmlns="http://www.w3.org/2000/svg" width="240" height="95" viewBox="0 0 240 95"><path d="M28.9,28.9L10.8,91.2" fill="none" stroke="#2b3634" stroke-width="5" stroke-linecap="round" stroke-linejoin="round" opacity="0.95"/><path d="M29.5,29.3L10.9,90.5" fill="none" stroke="#2b3634" stroke-width="2.75" stroke-linecap="round" stroke-linejoin="round" opacity="0.6"/><path d="M30.4,30.1L48.9,91.7" fill="none" stroke="#2b3634" stroke-width="5" stroke-linecap="round" stroke-linejoin="round" opacity="0.95"/><path d="M28.2,28.7L49.8,91.6" fill="none" stroke="#2b3634" stroke-width="2.75" stroke-linecap="round" stroke-linejoin="round" opacity="0.6"/><path d="M210.3,30.6L191.0,90.2" fill="none" stroke="#2b3634" stroke-width="5" stroke-linecap="round" stroke-linejoin="round" opacity="0.95"/><path d="M208.9,28.3L190.5,92.6" fill="none" stroke="#2b3634" stroke-width="2.75" stroke-linecap="round" stroke-linejoin="round" opacity="0.6"/><path d="M209.2,30.2L229.1,91.7" fill="none" stroke="#2b3634" stroke-width="5" stroke-linecap="round" stroke-linejoin="round" opacity="0.95"/><path d="M210.7,31.4L230.7,89.7" fill="none" stroke="#2b3634" stroke-width="2.75" stroke-linecap="round" stroke-linejoin="round" opacity="0.6"/><path d="M0.6,9.8L239.8,9.3L239.3,43.7L-0.6,44.1Z" fill="#f2c230"/><path d="M1.2,10.5L60.8,10.4L119.4,9.3L180.7,10.1L240.9,10.0" fill="none" stroke="#2b3634" stroke-width="3" stroke-linecap="round" stroke-linejoin="round" opacity="0.95"/><path d="M-0.3,11.7L58.4,10.1L120.3,11.5L179.5,11.1L239.2,8.6" fill="none" stroke="#2b3634" stroke-width="1.6500000000000001" stroke-linecap="round" stroke-linejoin="round" opacity="0.6"/><path d="M239.2,11.0L240.7,26.2L240.8,43.8" fill="none" stroke="#2b3634" stroke-width="3" stroke-linecap="round" stroke-linejoin="round" opacity="0.95"/><path d="M238.5,11.3L239.0,26.8L241.0,45.3" fill="none" stroke="#2b3634" stroke-width="1.6500000000000001" stroke-linecap="round" stroke-linejoin="round" opacity="0.6"/><path d="M240.9,43.3L179.5,43.6L119.5,42.8L60.0,42.9L0.3,43.9" fill="none" stroke="#2b3634" stroke-width="3" stroke-linecap="round" stroke-linejoin="round" opacity="0.95"/><path d="M239.9,42.7L180.2,45.2L118.8,45.4L60.5,43.8L-0.1,42.3" fill="none" stroke="#2b3634" stroke-width="1.6500000000000001" stroke-linecap="round" stroke-linejoin="round" opacity="0.6"/><path d="M-0.5,44.7L-0.3,27.8L0.3,9.9" fill="none" stroke="#2b3634" stroke-width="3" stroke-linecap="round" stroke-linejoin="round" opacity="0.95"/><path d="M0.4,45.7L-1.0,28.3L0.3,8.6" fill="none" stroke="#2b3634" stroke-width="1.6500000000000001" stroke-linecap="round" stroke-linejoin="round" opacity="0.6"/><path d="M-20,44 L0,44 L20,10 L0,10Z" fill="#26282b"/><path d="M20,44 L40,44 L60,10 L40,10Z" fill="#26282b"/><path d="M60,44 L80,44 L100,10 L80,10Z" fill="#26282b"/><path d="M100,44 L120,44 L140,10 L120,10Z" fill="#26282b"/><path d="M140,44 L160,44 L180,10 L160,10Z" fill="#26282b"/><path d="M180,44 L200,44 L220,10 L200,10Z" fill="#26282b"/><path d="M220,44 L240,44 L260,10 L240,10Z" fill="#26282b"/></svg>