<svg xmlns="http://www.w3.org/2000/svg" width="300" height="300" viewBox="0 0 300 300"><ellipse cx="147.5" cy="144.0" rx="9.047190442725261" ry="5.077881090415531" fill="#f4b6c8" transform="rotate(48 147.5 144.0)"/><ellipse cx="177.8" cy="76.8" rx="8.965592594319576" ry="7.228858581957276" fill="#f4b6c8" transform="rotate(62 177.8 76.8)"/><ellipse cx="48.8" cy="213.8" rx="10.892157938696592" ry="7.099095301794908" fill="#f4b6c8" transform="rotate(70 48.8 213.8)"/><ellipse cx="169.4" cy="177.2" rx="11.64095351765021" ry="7.103469069677842" fill="#f4b6c8" transform="rotate(80 169.4 177.2)"/><ellipse cx="171.1" cy="79.8" rx="8.124755771946866" ry="6.0621783589592" fill="#f4b6c8" transform="rotate(41 171.1 79.8)"/><ellipse cx="253.8" cy="199.0" rx="9.283957216687462" ry="7.681381969415938" fill="#f4b6c8" transform="rotate(151 253.8 199.0)"/><ellipse cx="238.0" cy="51.4" rx="9.865852192850646" ry="7.626697861707488" fill="#f4b6c8" transform="rotate(155 238.0 51.4)"/><ellipse cx="119.4" cy="147.3" rx="11.65054192594303" ry="7.7948959314216815" fill="#f4b6c8" transform="rotate(131 119.4 147.3)"/><ellipse cx="30.4" cy="145.5" rx="10.782478165144546" ry="5.066323362352628" fill="#f4b6c8" transform="rotate(161 30.4 145.5)"/><ellipse cx="42.5" cy="156.3" rx="10.83038986644744" ry="5.217501416073648" fill="#f4b6c8" transform="rotate(2 42.5 156.3)"/><ellipse cx="19.9" cy="109.5" rx="12.833216620453836" ry="6.123044762874995" fill="#f4b6c8" transform="rotate(77 19.9 109.5)"/><ellipse cx="159.8" cy="253.3" rx="12.991657778147289" ry="7.875366432010537" fill="#f4b6c8" transform="rotate(112 159.8 253.3)"/><ellipse cx="199.5" cy="112.8" rx="11.253157321133797" ry="5.489065979131559" fill="#f4b6c8" transform="rotate(34 199.5 112.8)"/><ellipse cx="59.8" cy="122.6" rx="10.368922587362047" ry="7.689167831269249" fill="#f4b6c8" transform="rotate(47 59.8 122.6)"/><ellipse cx="43.9" cy="55.0" rx="11.649137328517751" ry="5.630654581012814" fill="#fde6ec" transform="rotate(127 43.9 55.0)"/><ellipse cx="283.5" cy="162.3" rx="8.240797428638485" ry="6.249452223767948" fill="#f4b6c8" transform="rotate(135 283.5 162.3)"/><ellipse cx="180.4" cy="230.2" rx="9.256502690963915" ry="6.82445379656223" fill="#fde6ec" transform="rotate(38 180.4 230.2)"/><ellipse cx="143.7" cy="260.7" rx="12.409238625698945" ry="5.644152046315513" fill="#f4b6c8" transform="rotate(119 143.7 260.7)"/><ellipse cx="134.5" cy="202.7" rx="10.8707855105128" ry="7.575255111395618" fill="#f4b6c8" transform="rotate(173 134.5 202.7)"/><ellipse cx="249.1" cy="128.1" rx="10.003604333851118" ry="7.746837491865119" fill="#f4b6c8" transform="rotate(31 249.1 128.1)"/><ellipse cx="56.3" cy="195.2" rx="11.060935186744608" ry="5.082619274112042" fill="#f4b6c8" transform="rotate(25 56.3 195.2)"/><ellipse cx="117.2" cy="156.7" rx="11.093315356497946" ry="7.6107269498619505" fill="#fde6ec" transform="rotate(17 117.2 156.7)"/><ellipse cx="141.8" cy="39.2" rx="11.893519019608869" ry="7.024502735142133" fill="#f4b6c8" transform="rotate(80 141.8 39.2)"/><ellipse cx="202.1" cy="153.2" rx="9.008753519047753" ry="7.472255523290723" fill="#f4b6c8" transform="rotate(156 202.1 153.2)"/><ellipse cx="127.0" cy="245.7" rx="9.199840452708155" ry="5.4311110432549485" fill="#fde6ec" transform="rotate(38 127.0 245.7)"/><ellipse cx="136.0" cy="97.3" rx="9.297037407101167" ry="7.584638077844529" fill="#fde6ec" transform="rotate(40 136.0 97.3)"/><ellipse cx="148.4" cy="151.2" rx="12.835419156435336" ry="7.333858097748699" fill="#fde6ec" transform="rotate(83 148.4 151.2)"/><ellipse cx="78.2" cy="172.5" rx="10.236662874684356" ry="5.955773867159872" fill="#f4b6c8" transform="rotate(143 78.2 172.5)"/><ellipse cx="284.9" cy="115.0" rx="8.945565259033408" ry="6.269204182801027" fill="#f4b6c8" transform="rotate(168 284.9 115.0)"/><ellipse cx="165.7" cy="76.6" rx="12.096864556518257" ry="5.601565081255106" fill="#fde6ec" transform="rotate(86 165.7 76.6)"/><ellipse cx="238.8" cy="100.4" rx="12.529915402671243" ry="7.572905824587592" fill="#fde6ec" transform="rotate(151 238.8 100.4)"/><ellipse cx="224.0" cy="108.2" rx="11.645366915637037" ry="6.609057027482481" fill="#f4b6c8" transform="rotate(101 224.0 108.2)"/><ellipse cx="134.9" cy="160.2" rx="12.605017515928502" ry="5.917635979985479" fill="#f4b6c8" transform="rotate(133 134.9 160.2)"/><ellipse cx="78.2" cy="99.1" rx="11.833505670850636" ry="7.8378914695586" fill="#f4b6c8" transform="rotate(91 78.2 99.1)"/><ellipse cx="66.8" cy="239.2" rx="10.96530558538186" ry="6.734593661720486" fill="#f4b6c8" transform="rotate(40 66.8 239.2)"/><ellipse cx="132.9" cy="203.0" rx="9.616623805944457" ry="5.357799791598506" fill="#f4b6c8" transform="rotate(154 132.9 203.0)"/><ellipse cx="207.8" cy="121.4" rx="9.87944580510207" ry="6.707402463264207" fill="#f4b6c8" transform="rotate(7 207.8 121.4)"/><ellipse cx="207.1" cy="224.7" rx="11.355382718942485" ry="7.350422082329562" fill="#f4b6c8" transform="rotate(3 207.1 224.7)"/><ellipse cx="57.1" cy="41.6" rx="9.68086821835569" ry="5.211303127195037" fill="#f4b6c8" transform="rotate(170 57.1 41.6)"/><ellipse cx="230.5" cy="215.3" rx="11.744156855385896" ry="6.8265669791275325" fill="#fde6ec" transform="rotate(24 230.5 215.3)"/><ellipse cx="230.9" cy="34.7" rx="10.813500890334604" ry="5.905688578640752" fill="#f4b6c8" transform="rotate(63 230.9 34.7)"/><ellipse cx="245.8" cy="50.4" rx="10.89612037632253" ry="5.057108789735575" fill="#f4b6c8" transform="rotate(59 245.8 50.4)"/><ellipse cx="180.7" cy="256.2" rx="9.47639954600148" ry="7.308318333987443" fill="#f4b6c8" transform="rotate(135 180.7 256.2)"/><ellipse cx="122.6" cy="192.6" rx="12.277102457617506" ry="5.1566064997172045" fill="#f4b6c8" transform="rotate(23 122.6 192.6)"/><ellipse cx="134.0" cy="177.5" rx="10.228938147638868" ry="6.058081431368442" fill="#f4b6c8" transform="rotate(3 134.0 177.5)"/><ellipse cx="236.8" cy="233.1" rx="10.217344809060306" ry="6.148536591928952" fill="#f4b6c8" transform="rotate(122 236.8 233.1)"/><ellipse cx="103.9" cy="46.2" rx="11.740131576769176" ry="5.234852370559101" fill="#f4b6c8" transform="rotate(73 103.9 46.2)"/><ellipse cx="82.8" cy="195.4" rx="9.435859884541351" ry="6.498264427760862" fill="#f4b6c8" transform="rotate(150 82.8 195.4)"/><ellipse cx="58.6" cy="77.9" rx="11.504363122400235" ry="6.698605931083304" fill="#fde6ec" transform="rotate(90 58.6 77.9)"/><ellipse cx="69.3" cy="74.6" rx="9.661189421230173" ry="7.76637724765239" fill="#fde6ec" transform="rotate(113 69.3 74.6)"/><ellipse cx="96.6" cy="108.1" rx="9.52064632067517" ry="6.501643290279101" fill="#f4b6c8" transform="rotate(32 96.6 108.1)"/><ellipse cx="120.9" cy="194.6" rx="9.468628196947861" ry="6.94048024382487" fill="#fde6ec" transform="rotate(132 120.9 194.6)"/><ellipse cx="140.9" cy="159.5" rx="11.355146838217179" ry="7.9717536736016665" fill="#f4b6c8" transform="rotate(115 140.9 159.5)"/><ellipse cx="186.8" cy="147.3" rx="10.905033724759736" ry="7.941097059697935" fill="#fde6ec" transform="rotate(77 186.8 147.3)"/><ellipse cx="17.9" cy="139.2" rx="11.380885832832089" ry="6.5289230477334215" fill="#f4b6c8" transform="rotate(168 17.9 139.2)"/><ellipse cx="145.4" cy="134.9" rx="11.29727563382804" ry="6.386954643658321" fill="#fde6ec" transform="rotate(152 145.4 134.9)"/><ellipse cx="64.1" cy="34.5" rx="8.289715996747573" ry="7.554076520310787" fill="#f4b6c8" transform="rotate(66 64.1 34.5)"/><ellipse cx="135.5" cy="186.4" rx="11.380783631820961" ry="5.498307611326042" fill="#f4b6c8" transform="rotate(115 135.5 186.4)"/><ellipse cx="225.3" cy="84.0" rx="10.229856275701762" ry="6.316668439020094" fill="#f4b6c8" transform="rotate(23 225.3 84.0)"/><ellipse cx="198.3" cy="54.5" rx="9.38145638292791" ry="6.882473713143239" fill="#fde6ec" transform="rotate(120 198.3 54.5)"/><ellipse cx="186.5" cy="285.7" rx="11.821364940443416" ry="5.408337952949421" fill="#f4b6c8" transform="rotate(17 186.5 285.7)"/><ellipse cx="154.0" cy="37.1" rx="12.680175888054237" ry="7.8296918182910344" fill="#f4b6c8" transform="rotate(59 154.0 37.1)"/><ellipse cx="20.9" cy="123.0" rx="10.57574065362638" ry="5.283910681757993" fill="#f4b6c8" transform="rotate(53 20.9 123.0)"/><ellipse cx="220.7" cy="94.4" rx="12.614585046297485" ry="6.398525682183472" fill="#fde6ec" transform="rotate(91 220.7 94.4)"/><ellipse cx="190.7" cy="145.8" rx="12.456109043169867" ry="7.294815687271595" fill="#f4b6c8" transform="rotate(166 190.7 145.8)"/><ellipse cx="210.0" cy="120.3" rx="9.478696566986569" ry="6.4719373406581" fill="#fde6ec" transform="rotate(1 210.0 120.3)"/><ellipse cx="168.7" cy="66.6" rx="12.435809456683518" ry="6.589725736612198" fill="#fde6ec" transform="rotate(149 168.7 66.6)"/><ellipse cx="124.3" cy="240.3" rx="10.100320534874053" ry="5.052351391923009" fill="#fde6ec" transform="rotate(51 124.3 240.3)"/><ellipse cx="140.2" cy="223.1" rx="8.945759949689508" ry="5.232503695630006" fill="#f4b6c8" transform="rotate(161 140.2 223.1)"/><ellipse cx="151.0" cy="206.0" rx="12.837872399797543" ry="5.072854798355005" fill="#fde6ec" transform="rotate(101 151.0 206.0)"/></svg>