<svg xmlns="http://www.w3.org/2000/svg" width="60" height="140" viewBox="0 0 60 140"><path d="M8.3,29.8L51.9,29.6L51.7,109.7L8.3,110.4Z" fill="#d24a3c"/><path d="M8.0,28.9L29.0,30.7L50.8,30.7" fill="none" stroke="#2b3634" stroke-width="4" stroke-linecap="round" stroke-linejoin="round" opacity="0.95"/><path d="M7.3,30.7L29.4,31.6L51.1,29.7" fill="none" stroke="#2b3634" stroke-width="2.2" stroke-linecap="round" stroke-linejoin="round" opacity="0.6"/><path d="M52.8,29.2L51.3,70.1L51.4,110.9" fill="none" stroke="#2b3634" stroke-width="4" stroke-linecap="round" stroke-linejoin="round" opacity="0.95"/><path d="M52.5,31.5L53.2,69.0L53.6,111.0" fill="none" stroke="#2b3634" stroke-width="2.2" stroke-linecap="round" stroke-linejoin="round" opacity="0.6"/><path d="M51.7,109.3L30.7,109.7L8.8,108.9" fill="none" stroke="#2b3634" stroke-width="4" stroke-linecap="round" stroke-linejoin="round" opacity="0.95"/><path d="M51.7,111.2L31.0,110.5L6.5,109.8" fill="none" stroke="#2b3634" stroke-width="2.2" stroke-linecap="round" stroke-linejoin="round" opacity="0.6"/><path d="M7.9,111.2L7.7,68.9L7.7,29.8" fill="none" stroke="#2b3634" stroke-width="4" stroke-linecap="round" stroke-linejoin="round" opacity="0.95"/><path d="M6.7,111.4L7.0,69.6L6.6,30.6" fill="none" stroke="#2b3634" stroke-width="2.2" stroke-linecap="round" stroke-linejoin="round" opacity="0.6"/><path d="M8,32 Q30,-8 52,32Z" fill="#d24a3c" stroke="#2b3634" stroke-width="4"/><path d="M15.9,69.4L44.3,69.2L44.0,78.3L15.7,78.6Z" fill="#2b3634"/><path d="M14.9,69.6L30.9,70.4L44.2,69.8" fill="none" stroke="#2b3634" stroke-width="1" stroke-linecap="round" stroke-linejoin="round" opacity="0.95"/><path d="M15.9,69.7L31.6,68.7L43.6,71.1" fill="none" stroke="#2b3634" stroke-width="0.55" stroke-linecap="round" stroke-linejoin="round" opacity="0.6"/><path d="M43.9,69.4L44.8,73.2L44.4,77.6" fill="none" stroke="#2b3634" stroke-width="1" stroke-linecap="round" stroke-linejoin="round" opacity="0.95"/><path d="M42.7,71.2L42.3,72.5L44.5,77.5" fill="none" stroke="#2b3634" stroke-width="0.55" stroke-linecap="round" stroke-linejoin="round" opacity="0.6"/><path d="M44.0,79.1L30.7,77.8L16.2,78.1" fill="none" stroke="#2b3634" stroke-width="1" stroke-linecap="round" stroke-linejoin="round" opacity="0.95"/><path d="M45.4,79.4L28.2,78.5L14.6,76.7" fill="none" stroke="#2b3634" stroke-width="0.55" stroke-linecap="round" stroke-linejoin="round" opacity="0.6"/><path d="M15.4,78.6L16.5,72.9L15.2,69.3" fill="none" stroke="#2b3634" stroke-width="1" stroke-linecap="round" stroke-linejoin="round" opacity="0.95"/><path d="M16.5,77.8L17.0,73.5L15.2,68.6" fill="none" stroke="#2b3634" stroke-width="0.55" stroke-linecap="round" stroke-linejoin="round" opacity="0.6"/><path d="M23.3,110.3L36.7,109.6L35.3,140.5L23.4,139.8Z" fill="#555"/><path d="M24.0,109.3L30.3,109.6L34.9,109.7" fill="none" stroke="#2b3634" stroke-width="2" stroke-linecap="round" stroke-linejoin="round" opacity="0.95"/><path d="M24.9,110.9L30.1,111.4L34.9,109.9" fill="none" stroke="#2b3634" stroke-width="1.1" stroke-linecap="round" stroke-linejoin="round" opacity="0.6"/><path d="M36.8,110.4L35.4,124.6L34.8,140.7" fill="none" stroke="#2b3634" stroke-width="2" stroke-linecap="round" stroke-linejoin="round" opacity="0.95"/><path d="M35.9,109.6L35.9,123.4L36.7,139.2" fill="none" stroke="#2b3634" stroke-width="1.1" stroke-linecap="round" stroke-linejoin="round" opacity="0.6"/><path d="M36.0,140.8L29.0,140.9L24.0,140.6" fill="none" stroke="#2b3634" stroke-width="2" stroke-linecap="round" stroke-linejoin="round" opacity="0.95"/><path d="M36.3,140.0L30.7,138.9L25.2,141.4" fill="none" stroke="#2b3634" stroke-width="1.1" stroke-linecap="round" stroke-linejoin="round" opacity="0.6"/><path d="M23.8,139.4L24.8,125.2L23.0,108.9" fill="none" stroke="#2b3634" stroke-width="2" stroke-linecap="round" stroke-linejoin="round" opacity="0.95"/><path d="M22.8,139.2L24.7,123.8L24.7,108.8" fill="none" stroke="#2b3634" stroke-width="1.1" stroke-linecap="round" stroke-linejoin="round" opacity="0.6"/></svg>