<svg xmlns="http://www.w3.org/2000/svg" width="95" height="185" viewBox="0 0 95 185"><path d="M2.3,2.8L93.8,1.8L92.5,182.6L2.0,183.4Z" fill="#3f7fc4"/><path d="M1.9,1.7L48.1,1.6L92.5,0.9" fill="none" stroke="#2b3634" stroke-width="4" stroke-linecap="round" stroke-linejoin="round" opacity="0.95"/><path d="M0.5,3.6L46.3,2.9L93.2,0.4" fill="none" stroke="#2b3634" stroke-width="2.2" stroke-linecap="round" stroke-linejoin="round" opacity="0.6"/><path d="M93.3,1.0L91.9,62.5L93.5,123.4L92.3,182.2" fill="none" stroke="#2b3634" stroke-width="4" stroke-linecap="round" stroke-linejoin="round" opacity="0.95"/><path d="M91.4,3.0L93.0,62.1L91.9,121.8L92.6,181.9" fill="none" stroke="#2b3634" stroke-width="2.2" stroke-linecap="round" stroke-linejoin="round" opacity="0.6"/><path d="M92.4,183.2L48.0,182.5L2.5,183.2" fill="none" stroke="#2b3634" stroke-width="4" stroke-linecap="round" stroke-linejoin="round" opacity="0.95"/><path d="M94.8,183.4L46.1,181.8L0.2,181.6" fill="none" stroke="#2b3634" stroke-width="2.2" stroke-linecap="round" stroke-linejoin="round" opacity="0.6"/><path d="M1.1,183.5L2.4,122.1L2.0,63.0L2.8,1.1" fill="none" stroke="#2b3634" stroke-width="4" stroke-linecap="round" stroke-linejoin="round" opacity="0.95"/><path d="M2.3,182.4L0.3,121.7L3.1,62.2L0.7,2.4" fill="none" stroke="#2b3634" stroke-width="2.2" stroke-linecap="round" stroke-linejoin="round" opacity="0.6"/><path d="M14.0,19.7L80.9,20.3L81.1,111.8L14.3,112.6Z" fill="#f5f7f2"/><path d="M14.3,18.9L46.9,20.5L81.6,19.1" fill="none" stroke="#2b3634" stroke-width="3" stroke-linecap="round" stroke-linejoin="round" opacity="0.95"/><path d="M13.8,18.2L47.1,20.3L81.7,20.6" fill="none" stroke="#2b3634" stroke-width="1.6500000000000001" stroke-linecap="round" stroke-linejoin="round" opacity="0.6"/><path d="M81.1,20.4L81.2,65.4L79.8,111.4" fill="none" stroke="#2b3634" stroke-width="3" stroke-linecap="round" stroke-linejoin="round" opacity="0.95"/><path d="M81.6,21.6L80.0,67.3L79.4,112.8" fill="none" stroke="#2b3634" stroke-width="1.6500000000000001" stroke-linecap="round" stroke-linejoin="round" opacity="0.6"/><path d="M82.0,111.4L47.9,111.9L13.1,113.0" fill="none" stroke="#2b3634" stroke-width="3" stroke-linecap="round" stroke-linejoin="round" opacity="0.95"/><path d="M82.5,111.2L48.8,113.5L13.2,112.3" fill="none" stroke="#2b3634" stroke-width="1.6500000000000001" stroke-linecap="round" stroke-linejoin="round" opacity="0.6"/><path d="M14.7,113.6L15.0,65.3L15.1,19.6" fill="none" stroke="#2b3634" stroke-width="3" stroke-linecap="round" stroke-linejoin="round" opacity="0.95"/><path d="M13.9,114.3L14.9,67.9L13.2,21.7" fill="none" stroke="#2b3634" stroke-width="1.6500000000000001" stroke-linecap="round" stroke-linejoin="round" opacity="0.6"/><path d="M22.3,32.6L33.5,31.8L32.5,52.2L21.9,51.5Z" fill="#d9533f"/><path d="M22.9,32.3L27.3,30.9L32.7,32.6" fill="none" stroke="#2b3634" stroke-width="1.5" stroke-linecap="round" stroke-linejoin="round" opacity="0.95"/><path d="M23.6,33.7L27.2,31.9L32.7,32.2" fill="none" stroke="#2b3634" stroke-width="0.8250000000000001" stroke-linecap="round" stroke-linejoin="round" opacity="0.6"/><path d="M33.4,32.6L33.8,43.2L32.7,52.8" fill="none" stroke="#2b3634" stroke-width="1.5" stroke-linecap="round" stroke-linejoin="round" opacity="0.95"/><path d="M33.1,30.4L33.8,41.5L31.9,53.7" fill="none" stroke="#2b3634" stroke-width="0.8250000000000001" stroke-linecap="round" stroke-linejoin="round" opacity="0.6"/><path d="M32.8,52.1L28.2,52.1L20.9,53.0" fill="none" stroke="#2b3634" stroke-width="1.5" stroke-linecap="round" stroke-linejoin="round" opacity="0.95"/><path d="M33.8,52.9L28.4,51.0L20.9,53.0" fill="none" stroke="#2b3634" stroke-width="0.8250000000000001" stroke-linecap="round" stroke-linejoin="round" opacity="0.6"/><path d="M22.1,51.8L23.1,40.9L21.5,31.7" fill="none" stroke="#2b3634" stroke-width="1.5" stroke-linecap="round" stroke-linejoin="round" opacity="0.95"/><path d="M23.0,51.3L21.3,41.2L21.4,33.1" fill="none" stroke="#2b3634" stroke-width="0.8250000000000001" stroke-linecap="round" stroke-linejoin="round" opacity="0.6"/><path d="M37.4,31.9L48.8,32.7L48.5,52.3L37.7,51.9Z" fill="#e8b64a"/><path d="M37.6,33.1L42.7,31.2L50.0,31.5" fill="none" stroke="#2b3634" stroke-width="1.5" stroke-linecap="round" stroke-linejoin="round" opacity="0.95"/><path d="M37.1,31.0L44.2,32.5L49.8,31.7" fill="none" stroke="#2b3634" stroke-width="0.8250000000000001" stroke-linecap="round" stroke-linejoin="round" opacity="0.6"/><path d="M49.9,31.5L47.9,43.0L49.2,53.0" fill="none" stroke="#2b3634" stroke-width="1.5" stroke-linecap="round" stroke-linejoin="round" opacity="0.95"/><path d="M49.2,30.6L50.6,43.6L47.9,50.9" fill="none" stroke="#2b3634" stroke-width="0.8250000000000001" stroke-linecap="round" stroke-linejoin="round" opacity="0.6"/><path d="M48.1,51.9L44.3,53.1L37.3,51.0" fill="none" stroke="#2b3634" stroke-width="1.5" stroke-linecap="round" stroke-linejoin="round" opacity="0.95"/><path d="M49.8,52.6L43.2,51.8L36.7,50.6" fill="none" stroke="#2b3634" stroke-width="0.8250000000000001" stroke-linecap="round" stroke-linejoin="round" opacity="0.6"/><path d="M37.2,51.0L36.8,42.5L38.6,32.3" fill="none" stroke="#2b3634" stroke-width="1.5" stroke-linecap="round" stroke-linejoin="round" opacity="0.95"/><path d="M39.1,53.3L37.7,42.0L38.0,32.3" fill="none" stroke="#2b3634" stroke-width="0.8250000000000001" stroke-linecap="round" stroke-linejoin="round" opacity="0.6"/><path d="M54.8,31.9L65.0,31.8L65.8,51.5L53.9,51.8Z" fill="#5aa6a0"/><path d="M53.5,32.6L59.5,31.5L64.2,32.1" fill="none" stroke="#2b3634" stroke-width="1.5" stroke-linecap="round" stroke-linejoin="round" opacity="0.95"/><path d="M52.6,31.1L59.0,30.8L64.5,32.2" fill="none" stroke="#2b3634" stroke-width="0.8250000000000001" stroke-linecap="round" stroke-linejoin="round" opacity="0.6"/><path d="M63.9,31.1L66.0,41.4L64.6,52.9" fill="none" stroke="#2b3634" stroke-width="1.5" stroke-linecap="round" stroke-linejoin="round" opacity="0.95"/><path d="M63.6,31.2L65.5,42.7L66.2,52.8" fill="none" stroke="#2b3634" stroke-width="0.8250000000000001" stroke-linecap="round" stroke-linejoin="round" opacity="0.6"/><path d="M64.3,51.5L60.5,53.0L53.0,51.9" fill="none" stroke="#2b3634" stroke-width="1.5" stroke-linecap="round" stroke-linejoin="round" opacity="0.95"/><path d="M63.6,53.1L59.3,51.6L54.3,52.9" fill="none" stroke="#2b3634" stroke-width="0.8250000000000001" stroke-linecap="round" stroke-linejoin="round" opacity="0.6"/><path d="M55.0,52.8L53.0,41.2L53.5,32.6" fill="none" stroke="#2b3634" stroke-width="1.5" stroke-linecap="round" stroke-linejoin="round" opacity="0.95"/><path d="M53.4,53.5L53.3,42.0L55.2,30.2" fill="none" stroke="#2b3634" stroke-width="0.8250000000000001" stroke-linecap="round" stroke-linejoin="round" opacity="0.6"/><path d="M70.1,31.4L81.0,31.8L81.2,51.9L70.2,52.2Z" fill="#f3efe2"/><path d="M70.9,32.0L76.5,32.5L81.6,32.9" fill="none" stroke="#2b3634" stroke-width="1.5" stroke-linecap="round" stroke-linejoin="round" opacity="0.95"/><path d="M68.4,30.6L75.6,32.6L81.8,33.7" fill="none" stroke="#2b3634" stroke-width="0.8250000000000001" stroke-linecap="round" stroke-linejoin="round" opacity="0.6"/><path d="M81.5,32.0L81.9,40.9L81.4,51.3" fill="none" stroke="#2b3634" stroke-width="1.5" stroke-linecap="round" stroke-linejoin="round" opacity="0.95"/><path d="M80.8,30.5L80.8,43.0L80.6,52.5" fill="none" stroke="#2b3634" stroke-width="0.8250000000000001" stroke-linecap="round" stroke-linejoin="round" opacity="0.6"/><path d="M80.8,52.6L75.8,51.8L68.9,52.3" fill="none" stroke="#2b3634" stroke-width="1.5" stroke-linecap="round" stroke-linejoin="round" opacity="0.95"/><path d="M81.5,51.4L74.8,52.0L69.6,53.3" fill="none" stroke="#2b3634" stroke-width="0.8250000000000001" stroke-linecap="round" stroke-linejoin="round" opacity="0.6"/><path d="M70.0,52.3L70.2,41.9L69.3,31.0" fill="none" stroke="#2b3634" stroke-width="1.5" stroke-linecap="round" stroke-linejoin="round" opacity="0.95"/><path d="M68.8,53.0L68.8,43.4L71.1,30.3" fill="none" stroke="#2b3634" stroke-width="0.8250000000000001" stroke-linecap="round" stroke-linejoin="round" opacity="0.6"/><path d="M22.6,59.4L32.3,59.8L33.0,79.5L22.1,79.5Z" fill="#e8b64a"/><path d="M21.0,59.9L28.0,59.7L32.4,60.9" fill="none" stroke="#2b3634" stroke-width="1.5" stroke-linecap="round" stroke-linejoin="round" opacity="0.95"/><path d="M23.6,60.2L25.9,59.8L32.3,60.2" fill="none" stroke="#2b3634" stroke-width="0.8250000000000001" stroke-linecap="round" stroke-linejoin="round" opacity="0.6"/><path d="M33.7,59.5L33.9,71.0L32.1,79.0" fill="none" stroke="#2b3634" stroke-width="1.5" stroke-linecap="round" stroke-linejoin="round" opacity="0.95"/><path d="M33.6,58.3L32.5,69.1L31.9,81.0" fill="none" stroke="#2b3634" stroke-width="0.8250000000000001" stroke-linecap="round" stroke-linejoin="round" opacity="0.6"/><path d="M32.1,80.4L28.6,79.3L22.8,80.6" fill="none" stroke="#2b3634" stroke-width="1.5" stroke-linecap="round" stroke-linejoin="round" opacity="0.95"/><path d="M32.6,79.9L28.1,78.8L20.9,81.7" fill="none" stroke="#2b3634" stroke-width="0.8250000000000001" stroke-linecap="round" stroke-linejoin="round" opacity="0.6"/><path d="M21.7,79.5L21.6,70.3L23.0,61.0" fill="none" stroke="#2b3634" stroke-width="1.5" stroke-linecap="round" stroke-linejoin="round" opacity="0.95"/><path d="M21.6,81.3L22.1,69.5L21.8,61.4" fill="none" stroke="#2b3634" stroke-width="0.8250000000000001" stroke-linecap="round" stroke-linejoin="round" opacity="0.6"/><path d="M38.4,60.6L49.2,60.7L49.6,80.6L37.7,79.9Z" fill="#5aa6a0"/><path d="M37.4,60.6L43.4,60.3L49.8,60.4" fill="none" stroke="#2b3634" stroke-width="1.5" stroke-linecap="round" stroke-linejoin="round" opacity="0.95"/><path d="M37.1,61.2L41.8,60.6L47.4,59.7" fill="none" stroke="#2b3634" stroke-width="0.8250000000000001" stroke-linecap="round" stroke-linejoin="round" opacity="0.6"/><path d="M48.4,61.2L49.7,70.0L49.0,79.6" fill="none" stroke="#2b3634" stroke-width="1.5" stroke-linecap="round" stroke-linejoin="round" opacity="0.95"/><path d="M49.9,58.6L49.3,70.7L48.8,79.0" fill="none" stroke="#2b3634" stroke-width="0.8250000000000001" stroke-linecap="round" stroke-linejoin="round" opacity="0.6"/><path d="M49.5,80.6L44.3,79.3L38.7,79.6" fill="none" stroke="#2b3634" stroke-width="1.5" stroke-linecap="round" stroke-linejoin="round" opacity="0.95"/><path d="M48.8,81.3L42.2,81.1L39.6,81.4" fill="none" stroke="#2b3634" stroke-width="0.8250000000000001" stroke-linecap="round" stroke-linejoin="round" opacity="0.6"/><path d="M38.8,80.4L37.8,69.3L38.3,61.1" fill="none" stroke="#2b3634" stroke-width="1.5" stroke-linecap="round" stroke-linejoin="round" opacity="0.95"/><path d="M37.5,79.0L39.5,68.7L39.0,61.3" fill="none" stroke="#2b3634" stroke-width="0.8250000000000001" stroke-linecap="round" stroke-linejoin="round" opacity="0.6"/><path d="M54.4,59.4L65.6,60.2L65.1,80.0L54.0,79.3Z" fill="#f3efe2"/><path d="M54.1,59.9L59.6,61.1L64.6,60.1" fill="none" stroke="#2b3634" stroke-width="1.5" stroke-linecap="round" stroke-linejoin="round" opacity="0.95"/><path d="M53.1,58.2L58.5,60.0L65.2,60.5" fill="none" stroke="#2b3634" stroke-width="0.8250000000000001" stroke-linecap="round" stroke-linejoin="round" opacity="0.6"/><path d="M65.1,60.8L64.1,70.2L65.8,80.0" fill="none" stroke="#2b3634" stroke-width="1.5" stroke-linecap="round" stroke-linejoin="round" opacity="0.95"/><path d="M63.8,58.8L64.6,71.5L63.7,79.8" fill="none" stroke="#2b3634" stroke-width="0.8250000000000001" stroke-linecap="round" stroke-linejoin="round" opacity="0.6"/><path d="M66.1,79.7L60.6,81.0L54.3,80.7" fill="none" stroke="#2b3634" stroke-width="1.5" stroke-linecap="round" stroke-linejoin="round" opacity="0.95"/><path d="M66.6,79.8L57.8,78.6L55.4,80.9" fill="none" stroke="#2b3634" stroke-width="0.8250000000000001" stroke-linecap="round" stroke-linejoin="round" opacity="0.6"/><path d="M54.9,79.9L53.7,69.8L53.8,59.1" fill="none" stroke="#2b3634" stroke-width="1.5" stroke-linecap="round" stroke-linejoin="round" opacity="0.95"/><path d="M53.8,80.4L53.2,68.7L55.7,60.7" fill="none" stroke="#2b3634" stroke-width="0.8250000000000001" stroke-linecap="round" stroke-linejoin="round" opacity="0.6"/><path d="M69.7,60.1L81.2,59.9L81.4,80.6L69.9,79.8Z" fill="#d9533f"/><path d="M69.1,59.3L76.4,60.3L80.3,59.7" fill="none" stroke="#2b3634" stroke-width="1.5" stroke-linecap="round" stroke-linejoin="round" opacity="0.95"/><path d="M68.6,59.5L76.1,61.8L81.1,60.2" fill="none" stroke="#2b3634" stroke-width="0.8250000000000001" stroke-linecap="round" stroke-linejoin="round" opacity="0.6"/><path d="M80.0,59.2L80.8,71.1L80.5,80.1" fill="none" stroke="#2b3634" stroke-width="1.5" stroke-linecap="round" stroke-linejoin="round" opacity="0.95"/><path d="M80.4,61.0L81.0,69.5L82.4,81.6" fill="none" stroke="#2b3634" stroke-width="0.8250000000000001" stroke-linecap="round" stroke-linejoin="round" opacity="0.6"/><path d="M81.0,80.1L76.2,80.8L69.8,80.2" fill="none" stroke="#2b3634" stroke-width="1.5" stroke-linecap="round" stroke-linejoin="round" opacity="0.95"/><path d="M80.2,80.3L76.0,78.7L69.8,79.9" fill="none" stroke="#2b3634" stroke-width="0.8250000000000001" stroke-linecap="round" stroke-linejoin="round" opacity="0.6"/><path d="M69.8,80.7L69.6,70.6L69.7,61.0" fill="none" stroke="#2b3634" stroke-width="1.5" stroke-linecap="round" stroke-linejoin="round" opacity="0.95"/><path d="M71.6,80.5L68.9,69.0L70.1,59.8" fill="none" stroke="#2b3634" stroke-width="0.8250000000000001" stroke-linecap="round" stroke-linejoin="round" opacity="0.6"/><path d="M22.6,87.4L32.8,88.0L32.4,108.3L22.3,107.7Z" fill="#5aa6a0"/><path d="M21.8,88.6L27.4,88.2L32.8,87.0" fill="none" stroke="#2b3634" stroke-width="1.5" stroke-linecap="round" stroke-linejoin="round" opacity="0.95"/><path d="M22.8,89.4L29.2,88.9L33.4,89.2" fill="none" stroke="#2b3634" stroke-width="0.8250000000000001" stroke-linecap="round" stroke-linejoin="round" opacity="0.6"/><path d="M32.9,88.5L34.1,98.1L33.3,108.1" fill="none" stroke="#2b3634" stroke-width="1.5" stroke-linecap="round" stroke-linejoin="round" opacity="0.95"/><path d="M34.6,87.3L34.3,97.9L32.0,109.4" fill="none" stroke="#2b3634" stroke-width="0.8250000000000001" stroke-linecap="round" stroke-linejoin="round" opacity="0.6"/><path d="M33.1,109.0L28.4,107.1L21.9,107.2" fill="none" stroke="#2b3634" stroke-width="1.5" stroke-linecap="round" stroke-linejoin="round" opacity="0.95"/><path d="M33.0,108.4L27.7,106.2L22.5,108.6" fill="none" stroke="#2b3634" stroke-width="0.8250000000000001" stroke-linecap="round" stroke-linejoin="round" opacity="0.6"/><path d="M20.9,108.0L22.2,96.9L22.6,87.5" fill="none" stroke="#2b3634" stroke-width="1.5" stroke-linecap="round" stroke-linejoin="round" opacity="0.95"/><path d="M23.8,108.2L23.4,99.4L21.4,87.5" fill="none" stroke="#2b3634" stroke-width="0.8250000000000001" stroke-linecap="round" stroke-linejoin="round" opacity="0.6"/><path d="M38.3,87.6L48.5,88.0L48.2,107.9L38.2,108.5Z" fill="#f3efe2"/><path d="M37.4,88.8L42.7,88.2L47.8,89.1" fill="none" stroke="#2b3634" stroke-width="1.5" stroke-linecap="round" stroke-linejoin="round" opacity="0.95"/><path d="M39.6,87.5L44.0,89.6L47.8,88.2" fill="none" stroke="#2b3634" stroke-width="0.8250000000000001" stroke-linecap="round" stroke-linejoin="round" opacity="0.6"/><path d="M49.0,88.3L49.6,98.6L49.6,107.9" fill="none" stroke="#2b3634" stroke-width="1.5" stroke-linecap="round" stroke-linejoin="round" opacity="0.95"/><path d="M49.4,89.7L50.5,98.0L50.1,107.3" fill="none" stroke="#2b3634" stroke-width="0.8250000000000001" stroke-linecap="round" stroke-linejoin="round" opacity="0.6"/><path d="M49.0,107.5L43.5,108.1L37.6,109.0" fill="none" stroke="#2b3634" stroke-width="1.5" stroke-linecap="round" stroke-linejoin="round" opacity="0.95"/><path d="M49.0,107.2L43.6,109.3L37.1,107.7" fill="none" stroke="#2b3634" stroke-width="0.8250000000000001" stroke-linecap="round" stroke-linejoin="round" opacity="0.6"/><path d="M36.9,107.2L37.3,98.0L37.6,87.1" fill="none" stroke="#2b3634" stroke-width="1.5" stroke-linecap="round" stroke-linejoin="round" opacity="0.95"/><path d="M37.2,109.4L38.3,99.5L39.1,87.4" fill="none" stroke="#2b3634" stroke-width="0.8250000000000001" stroke-linecap="round" stroke-linejoin="round" opacity="0.6"/><path d="M54.1,87.9L65.3,88.3L64.6,108.2L54.5,108.7Z" fill="#d9533f"/><path d="M54.3,87.2L58.6,88.0L65.0,86.8" fill="none" stroke="#2b3634" stroke-width="1.5" stroke-linecap="round" stroke-linejoin="round" opacity="0.95"/><path d="M55.6,86.5L61.1,88.7L65.3,88.2" fill="none" stroke="#2b3634" stroke-width="0.8250000000000001" stroke-linecap="round" stroke-linejoin="round" opacity="0.6"/><path d="M65.4,88.4L66.0,98.8L64.3,106.8" fill="none" stroke="#2b3634" stroke-width="1.5" stroke-linecap="round" stroke-linejoin="round" opacity="0.95"/><path d="M66.3,87.7L65.9,96.9L65.8,109.1" fill="none" stroke="#2b3634" stroke-width="0.8250000000000001" stroke-linecap="round" stroke-linejoin="round" opacity="0.6"/><path d="M65.3,107.9L59.2,108.4L54.3,108.6" fill="none" stroke="#2b3634" stroke-width="1.5" stroke-linecap="round" stroke-linejoin="round" opacity="0.95"/><path d="M63.2,108.2L61.2,108.6L52.6,108.6" fill="none" stroke="#2b3634" stroke-width="0.8250000000000001" stroke-linecap="round" stroke-linejoin="round" opacity="0.6"/><path d="M53.7,109.1L53.1,97.5L53.0,87.7" fill="none" stroke="#2b3634" stroke-width="1.5" stroke-linecap="round" stroke-linejoin="round" opacity="0.95"/><path d="M53.3,109.0L52.9,97.6L55.7,86.9" fill="none" stroke="#2b3634" stroke-width="0.8250000000000001" stroke-linecap="round" stroke-linejoin="round" opacity="0.6"/><path d="M70.7,88.5L81.7,87.9L81.6,107.4L69.9,107.5Z" fill="#e8b64a"/><path d="M70.1,88.9L76.1,87.8L80.3,87.8" fill="none" stroke="#2b3634" stroke-width="1.5" stroke-linecap="round" stroke-linejoin="round" opacity="0.95"/><path d="M71.5,88.5L74.9,87.4L80.1,88.4" fill="none" stroke="#2b3634" stroke-width="0.8250000000000001" stroke-linecap="round" stroke-linejoin="round" opacity="0.6"/><path d="M81.9,87.0L82.1,97.3L81.7,109.0" fill="none" stroke="#2b3634" stroke-width="1.5" stroke-linecap="round" stroke-linejoin="round" opacity="0.95"/><path d="M82.3,89.0L81.1,98.5L79.6,106.8" fill="none" stroke="#2b3634" stroke-width="0.8250000000000001" stroke-linecap="round" stroke-linejoin="round" opacity="0.6"/><path d="M81.9,107.2L75.5,108.9L71.1,108.9" fill="none" stroke="#2b3634" stroke-width="1.5" stroke-linecap="round" stroke-linejoin="round" opacity="0.95"/><path d="M81.6,106.6L75.1,106.4L71.7,108.1" fill="none" stroke="#2b3634" stroke-width="0.8250000000000001" stroke-linecap="round" stroke-linejoin="round" opacity="0.6"/><path d="M69.1,107.7L71.0,98.3L70.4,88.1" fill="none" stroke="#2b3634" stroke-width="1.5" stroke-linecap="round" stroke-linejoin="round" opacity="0.95"/><path d="M70.8,107.4L69.0,98.4L69.0,86.4" fill="none" stroke="#2b3634" stroke-width="0.8250000000000001" stroke-linecap="round" stroke-linejoin="round" opacity="0.6"/><path d="M24.3,114.1L71.0,115.0L70.6,141.4L23.5,141.1Z" fill="#2f3a38"/><path d="M24.0,113.7L47.4,114.5L70.9,114.8" fill="none" stroke="#2b3634" stroke-width="2" stroke-linecap="round" stroke-linejoin="round" opacity="0.95"/><path d="M23.7,116.1L46.5,115.6L71.4,114.6" fill="none" stroke="#2b3634" stroke-width="1.1" stroke-linecap="round" stroke-linejoin="round" opacity="0.6"/><path d="M70.3,115.0L70.0,127.5L71.0,139.5" fill="none" stroke="#2b3634" stroke-width="2" stroke-linecap="round" stroke-linejoin="round" opacity="0.95"/><path d="M71.4,115.1L71.2,128.1L72.2,139.4" fill="none" stroke="#2b3634" stroke-width="1.1" stroke-linecap="round" stroke-linejoin="round" opacity="0.6"/><path d="M70.8,141.4L48.3,141.2L23.6,141.8" fill="none" stroke="#2b3634" stroke-width="2" stroke-linecap="round" stroke-linejoin="round" opacity="0.95"/><path d="M71.2,139.9L47.1,140.0L25.0,141.5" fill="none" stroke="#2b3634" stroke-width="1.1" stroke-linecap="round" stroke-linejoin="round" opacity="0.6"/><path d="M24.7,141.2L23.8,128.3L24.5,115.2" fill="none" stroke="#2b3634" stroke-width="2" stroke-linecap="round" stroke-linejoin="round" opacity="0.95"/><path d="M23.7,141.2L22.9,126.3L23.7,115.1" fill="none" stroke="#2b3634" stroke-width="1.1" stroke-linecap="round" stroke-linejoin="round" opacity="0.6"/><path d="M18.0,134.2L77.0,134.5L77.0,164.8L17.7,165.3Z" fill="#2f3a38"/><path d="M17.2,135.7L47.2,134.2L76.7,134.2" fill="none" stroke="#2b3634" stroke-width="2" stroke-linecap="round" stroke-linejoin="round" opacity="0.95"/><path d="M18.3,134.9L48.4,133.5L78.5,134.1" fill="none" stroke="#2b3634" stroke-width="1.1" stroke-linecap="round" stroke-linejoin="round" opacity="0.6"/><path d="M77.1,134.2L76.6,150.7L77.5,166.0" fill="none" stroke="#2b3634" stroke-width="2" stroke-linecap="round" stroke-linejoin="round" opacity="0.95"/><path d="M77.4,135.9L76.7,150.3L77.5,163.8" fill="none" stroke="#2b3634" stroke-width="1.1" stroke-linecap="round" stroke-linejoin="round" opacity="0.6"/><path d="M77.5,165.7L47.6,166.1L17.1,163.8" fill="none" stroke="#2b3634" stroke-width="2" stroke-linecap="round" stroke-linejoin="round" opacity="0.95"/><path d="M75.4,164.9L46.5,164.2L18.9,165.4" fill="none" stroke="#2b3634" stroke-width="1.1" stroke-linecap="round" stroke-linejoin="round" opacity="0.6"/><path d="M17.5,165.5L19.2,149.7L17.7,134.8" fill="none" stroke="#2b3634" stroke-width="2" stroke-linecap="round" stroke-linejoin="round" opacity="0.95"/><path d="M17.3,165.4L19.1,148.9L17.4,136.7" fill="none" stroke="#2b3634" stroke-width="1.1" stroke-linecap="round" stroke-linejoin="round" opacity="0.6"/></svg>