<svg xmlns="http://www.w3.org/2000/svg" width="108" height="324" viewBox="0 0 108 324"><rect x="0" y="0" width="108" height="324" rx="0" fill="#d9efe9"/><rect x="0" y="0" width="17.28" height="324" rx="0" fill="#e8b64a"/><rect x="0" y="12.96" width="17.28" height="6.48" rx="0" fill="#ffffff"/><rect x="0" y="51.839999999999996" width="17.28" height="6.48" rx="0" fill="#ffffff"/><rect x="0" y="90.72" width="17.28" height="6.48" rx="0" fill="#ffffff"/><rect x="0" y="129.6" width="17.28" height="6.48" rx="0" fill="#ffffff"/><rect x="0" y="168.48" width="17.28" height="6.48" rx="0" fill="#ffffff"/><rect x="0" y="207.35999999999999" width="17.28" height="6.48" rx="0" fill="#ffffff"/><rect x="0" y="246.23999999999998" width="17.28" height="6.48" rx="0" fill="#ffffff"/><rect x="0" y="285.12" width="17.28" height="6.48" rx="0" fill="#ffffff"/><path d="M44.22599999999999,32.184 h36.828 l-3.6828000000000003,33.48 h-29.462400000000002z" fill="#f4f1e8" stroke="#2b3634" stroke-width="1.674" stroke-linejoin="round"/><rect x="47.172239999999995" y="42.227999999999994" width="30.93552" height="10.043999999999999" rx="0" fill="#5aa6a0"/><path d="M81.054,37.205999999999996 q12.889800000000001,0 7.365600000000001,15.065999999999999 q-2.9462400000000004,5.021999999999999 -8.102160000000001,4.0176" fill="none" stroke="#2b3634" stroke-width="2.0088" stroke-linejoin="round"/><circle cx="55.943999999999996" cy="18.791999999999998" r="6.696" fill="#ffffff" stroke="#2b3634" stroke-width="1.3392"/><circle cx="64.6488" cy="13.435199999999998" r="8.704799999999999" fill="#ffffff" stroke="#2b3634" stroke-width="1.3392"/><circle cx="72.684" cy="20.1312" r="6.026399999999999" fill="#ffffff" stroke="#2b3634" stroke-width="1.3392"/><text x="62.63999999999999" y="90.72000000000001" font-size="33.48" fill="#2f5f63" text-anchor="middle" dominant-baseline="middle" font-family="Hiragino Sans, 'Hiragino Kaku Gothic ProN', 'Noto Sans JP', 'Arial Black', sans-serif" font-weight="900" letter-spacing="0" stroke="#ffffff" stroke-width="3.2399999999999998" paint-order="stroke">く</text><text x="62.63999999999999" y="124.86960000000002" font-size="33.48" fill="#2f5f63" text-anchor="middle" dominant-baseline="middle" font-family="Hiragino Sans, 'Hiragino Kaku Gothic ProN', 'Noto Sans JP', 'Arial Black', sans-serif" font-weight="900" letter-spacing="0" stroke="#ffffff" stroke-width="3.2399999999999998" paint-order="stroke">も</text><text x="62.63999999999999" y="159.0192" font-size="33.48" fill="#2f5f63" text-anchor="middle" dominant-baseline="middle" font-family="Hiragino Sans, 'Hiragino Kaku Gothic ProN', 'Noto Sans JP', 'Arial Black', sans-serif" font-weight="900" letter-spacing="0" stroke="#ffffff" stroke-width="3.2399999999999998" paint-order="stroke">コ</text><text x="62.63999999999999" y="193.16880000000003" font-size="33.48" fill="#2f5f63" text-anchor="middle" dominant-baseline="middle" font-family="Hiragino Sans, 'Hiragino Kaku Gothic ProN', 'Noto Sans JP', 'Arial Black', sans-serif" font-weight="900" letter-spacing="0" stroke="#ffffff" stroke-width="3.2399999999999998" paint-order="stroke">ー</text><text x="62.63999999999999" y="227.3184" font-size="33.48" fill="#2f5f63" text-anchor="middle" dominant-baseline="middle" font-family="Hiragino Sans, 'Hiragino Kaku Gothic ProN', 'Noto Sans JP', 'Arial Black', sans-serif" font-weight="900" letter-spacing="0" stroke="#ffffff" stroke-width="3.2399999999999998" paint-order="stroke">ヒ</text><text x="62.63999999999999" y="261.468" font-size="33.48" fill="#2f5f63" text-anchor="middle" dominant-baseline="middle" font-family="Hiragino Sans, 'Hiragino Kaku Gothic ProN', 'Noto Sans JP', 'Arial Black', sans-serif" font-weight="900" letter-spacing="0" stroke="#ffffff" stroke-width="3.2399999999999998" paint-order="stroke">ー</text><rect x="21.6" y="301.32" width="82.08" height="16.2" rx="0" fill="#2b3634"/></svg>